<svg viewBox="0 0 160 96" xmlns="http://www.w3.org/2000/svg" role="img" aria-label="Minimal car icon">
  <path d="M22 52h116c6.6 0 12-5.4 12-12V40c0-6.6-5.4-12-12-12H122l-14-18c-4.5-6-11-10-18-10H70c-7 0-13.5 4-18 10L38 28H22c-6.6 0-12 5.4-12 12v0c0 6.6 5.4 12 12 12Z" fill="#111827" />
  <rect x="46" y="20" width="68" height="18" rx="5" fill="#1f2937" />
  <rect x="50" y="24" width="26" height="10" rx="3" fill="#94a3b8" opacity="0.85" />
  <rect x="84" y="24" width="26" height="10" rx="3" fill="#94a3b8" opacity="0.85" />
  <circle cx="46" cy="74" r="12" fill="#0f172a" />
  <circle cx="114" cy="74" r="12" fill="#0f172a" />
  <circle cx="46" cy="74" r="4" fill="#94a3b8" />
  <circle cx="114" cy="74" r="4" fill="#94a3b8" />
  <path d="M38 52h84" stroke="#94a3b8" stroke-width="4" stroke-linecap="round" opacity="0.3" />
  <path d="M30 42h100" stroke="#94a3b8" stroke-width="4" stroke-linecap="round" />
</svg>
